<svg id="visual" viewBox="0 0 540 960" width="540" height="960" xmlns="http://www.w3.org/2000/svg" xmlns:xlink="http://www.w3.org/1999/xlink" version="1.1"><rect x="0" y="0" width="540" height="960" fill="#f4f4f4"></rect><defs><linearGradient id="grad1_0" x1="0%" y1="0%" x2="100%" y2="100%"><stop offset="30%" stop-color="#99bc85" stop-opacity="1"></stop><stop offset="70%" stop-color="#99bc85" stop-opacity="1"></stop></linearGradient></defs><defs><linearGradient id="grad1_1" x1="0%" y1="0%" x2="100%" y2="100%"><stop offset="30%" stop-color="#99bc85" stop-opacity="1"></stop><stop offset="70%" stop-color="#c6d8bb" stop-opacity="1"></stop></linearGradient></defs><defs><linearGradient id="grad1_2" x1="0%" y1="0%" x2="100%" y2="100%"><stop offset="30%" stop-color="#f4f4f4" stop-opacity="1"></stop><stop offset="70%" stop-color="#c6d8bb" stop-opacity="1"></stop></linearGradient></defs><defs><linearGradient id="grad2_0" x1="0%" y1="0%" x2="100%" y2="100%"><stop offset="30%" stop-color="#99bc85" stop-opacity="1"></stop><stop offset="70%" stop-color="#99bc85" stop-opacity="1"></stop></linearGradient></defs><defs><linearGradient id="grad2_1" x1="0%" y1="0%" x2="100%" y2="100%"><stop offset="30%" stop-color="#c6d8bb" stop-opacity="1"></stop><stop offset="70%" stop-color="#99bc85" stop-opacity="1"></stop></linearGradient></defs><defs><linearGradient id="grad2_2" x1="0%" y1="0%" x2="100%" y2="100%"><stop offset="30%" stop-color="#c6d8bb" stop-opacity="1"></stop><stop offset="70%" stop-color="#f4f4f4" stop-opacity="1"></stop></linearGradient></defs><g transform="translate(540, 0)"><path d="M0 351C-41.1 336.3 -82.1 321.6 -127.4 307.7C-172.8 293.7 -222.4 280.5 -248.2 248.2C-274 215.9 -276 164.3 -289.2 119.8C-302.3 75.2 -326.7 37.6 -351 0L0 0Z" fill="#dde6d7"></path><path d="M0 234C-27.4 224.2 -54.7 214.4 -85 205.1C-115.2 195.8 -148.3 187 -165.5 165.5C-182.7 143.9 -184 109.6 -192.8 79.9C-201.6 50.1 -217.8 25.1 -234 0L0 0Z" fill="#b0caa0"></path><path d="M0 117C-13.7 112.1 -27.4 107.2 -42.5 102.6C-57.6 97.9 -74.1 93.5 -82.7 82.7C-91.3 72 -92 54.8 -96.4 39.9C-100.8 25.1 -108.9 12.5 -117 0L0 0Z" fill="#99bc85"></path></g><g transform="translate(0, 960)"><path d="M0 -351C42.4 -337.7 84.8 -324.3 128.2 -309.5C171.6 -294.7 216.1 -278.3 248.2 -248.2C280.3 -218.1 300 -174.2 315 -130.5C330.1 -86.8 340.6 -43.4 351 0L0 0Z" fill="#dde6d7"></path><path d="M0 -234C28.3 -225.1 56.5 -216.2 85.5 -206.3C114.4 -196.4 144.1 -185.5 165.5 -165.5C186.9 -145.4 200 -116.1 210 -87C220.1 -57.9 227 -28.9 234 0L0 0Z" fill="#b0caa0"></path><path d="M0 -117C14.1 -112.6 28.3 -108.1 42.7 -103.2C57.2 -98.2 72 -92.8 82.7 -82.7C93.4 -72.7 100 -58.1 105 -43.5C110 -28.9 113.5 -14.5 117 0L0 0Z" fill="#99bc85"></path></g></svg>