<svg id="visual" viewBox="0 0 960 540" width="960" height="540" xmlns="http://www.w3.org/2000/svg" xmlns:xlink="http://www.w3.org/1999/xlink" version="1.1"><rect x="0" y="0" width="960" height="540" fill="#f4f4f4"></rect><path d="M0 156L13.3 153.5C26.7 151 53.3 146 80 158.2C106.7 170.3 133.3 199.7 160 213.8C186.7 228 213.3 227 240 213.7C266.7 200.3 293.3 174.7 320 160.8C346.7 147 373.3 145 400 151.5C426.7 158 453.3 173 480 188.8C506.7 204.7 533.3 221.3 560 220.8C586.7 220.3 613.3 202.7 640 193.7C666.7 184.7 693.3 184.3 720 184.5C746.7 184.7 773.3 185.3 800 176.8C826.7 168.3 853.3 150.7 880 145.8C906.7 141 933.3 149 946.7 153L960 157L960 0L946.7 0C933.3 0 906.7 0 880 0C853.3 0 826.7 0 800 0C773.3 0 746.7 0 720 0C693.3 0 666.7 0 640 0C613.3 0 586.7 0 560 0C533.3 0 506.7 0 480 0C453.3 0 426.7 0 400 0C373.3 0 346.7 0 320 0C293.3 0 266.7 0 240 0C213.3 0 186.7 0 160 0C133.3 0 106.7 0 80 0C53.3 0 26.7 0 13.3 0L0 0Z" fill="#99bc85"></path><path d="M0 123L13.3 128.7C26.7 134.3 53.3 145.7 80 144.5C106.7 143.3 133.3 129.7 160 125C186.7 120.3 213.3 124.7 240 128C266.7 131.3 293.3 133.7 320 138.7C346.7 143.7 373.3 151.3 400 160.7C426.7 170 453.3 181 480 176.7C506.7 172.3 533.3 152.7 560 142.2C586.7 131.7 613.3 130.3 640 128.5C666.7 126.7 693.3 124.3 720 125.8C746.7 127.3 773.3 132.7 800 145.7C826.7 158.7 853.3 179.3 880 190C906.7 200.7 933.3 201.3 946.7 201.7L960 202L960 0L946.7 0C933.3 0 906.7 0 880 0C853.3 0 826.7 0 800 0C773.3 0 746.7 0 720 0C693.3 0 666.7 0 640 0C613.3 0 586.7 0 560 0C533.3 0 506.7 0 480 0C453.3 0 426.7 0 400 0C373.3 0 346.7 0 320 0C293.3 0 266.7 0 240 0C213.3 0 186.7 0 160 0C133.3 0 106.7 0 80 0C53.3 0 26.7 0 13.3 0L0 0Z" fill="#8bac78"></path><path d="M0 139L13.3 142.2C26.7 145.3 53.3 151.7 80 143.3C106.7 135 133.3 112 160 106.7C186.7 101.3 213.3 113.7 240 114.3C266.7 115 293.3 104 320 107.7C346.7 111.3 373.3 129.7 400 138.7C426.7 147.7 453.3 147.3 480 140C506.7 132.7 533.3 118.3 560 113.3C586.7 108.3 613.3 112.7 640 122.2C666.7 131.7 693.3 146.3 720 153.3C746.7 160.3 773.3 159.7 800 151C826.7 142.3 853.3 125.7 880 121.7C906.7 117.7 933.3 126.3 946.7 130.7L960 135L960 0L946.7 0C933.3 0 906.7 0 880 0C853.3 0 826.7 0 800 0C773.3 0 746.7 0 720 0C693.3 0 666.7 0 640 0C613.3 0 586.7 0 560 0C533.3 0 506.7 0 480 0C453.3 0 426.7 0 400 0C373.3 0 346.7 0 320 0C293.3 0 266.7 0 240 0C213.3 0 186.7 0 160 0C133.3 0 106.7 0 80 0C53.3 0 26.7 0 13.3 0L0 0Z" fill="#7d9c6c"></path><path d="M0 112L13.3 111.7C26.7 111.3 53.3 110.7 80 109.3C106.7 108 133.3 106 160 108.7C186.7 111.3 213.3 118.7 240 119.7C266.7 120.7 293.3 115.3 320 111.2C346.7 107 373.3 104 400 98.2C426.7 92.3 453.3 83.7 480 89C506.7 94.3 533.3 113.7 560 114.3C586.7 115 613.3 97 640 91.3C666.7 85.7 693.3 92.3 720 94.8C746.7 97.3 773.3 95.7 800 100.3C826.7 105 853.3 116 880 119C906.7 122 933.3 117 946.7 114.5L960 112L960 0L946.7 0C933.3 0 906.7 0 880 0C853.3 0 826.7 0 800 0C773.3 0 746.7 0 720 0C693.3 0 666.7 0 640 0C613.3 0 586.7 0 560 0C533.3 0 506.7 0 480 0C453.3 0 426.7 0 400 0C373.3 0 346.7 0 320 0C293.3 0 266.7 0 240 0C213.3 0 186.7 0 160 0C133.3 0 106.7 0 80 0C53.3 0 26.7 0 13.3 0L0 0Z" fill="#6f8c60"></path><path d="M0 50L13.3 57C26.7 64 53.3 78 80 79.5C106.7 81 133.3 70 160 62.7C186.7 55.3 213.3 51.7 240 56.2C266.7 60.7 293.3 73.3 320 76.8C346.7 80.3 373.3 74.7 400 75.3C426.7 76 453.3 83 480 83.8C506.7 84.7 533.3 79.3 560 72.8C586.7 66.3 613.3 58.7 640 61.7C666.7 64.7 693.3 78.3 720 81.2C746.7 84 773.3 76 800 74.2C826.7 72.3 853.3 76.7 880 80.3C906.7 84 933.3 87 946.7 88.5L960 90L960 0L946.7 0C933.3 0 906.7 0 880 0C853.3 0 826.7 0 800 0C773.3 0 746.7 0 720 0C693.3 0 666.7 0 640 0C613.3 0 586.7 0 560 0C533.3 0 506.7 0 480 0C453.3 0 426.7 0 400 0C373.3 0 346.7 0 320 0C293.3 0 266.7 0 240 0C213.3 0 186.7 0 160 0C133.3 0 106.7 0 80 0C53.3 0 26.7 0 13.3 0L0 0Z" fill="#627c54"></path><path d="M0 36L13.3 34.5C26.7 33 53.3 30 80 31.7C106.7 33.3 133.3 39.7 160 42.2C186.7 44.7 213.3 43.3 240 41C266.7 38.7 293.3 35.3 320 34.5C346.7 33.7 373.3 35.3 400 36.3C426.7 37.3 453.3 37.7 480 37.8C506.7 38 533.3 38 560 38.2C586.7 38.3 613.3 38.7 640 42.2C666.7 45.7 693.3 52.3 720 51.8C746.7 51.3 773.3 43.7 800 39.5C826.7 35.3 853.3 34.7 880 33.3C906.7 32 933.3 30 946.7 29L960 28L960 0L946.7 0C933.3 0 906.7 0 880 0C853.3 0 826.7 0 800 0C773.3 0 746.7 0 720 0C693.3 0 666.7 0 640 0C613.3 0 586.7 0 560 0C533.3 0 506.7 0 480 0C453.3 0 426.7 0 400 0C373.3 0 346.7 0 320 0C293.3 0 266.7 0 240 0C213.3 0 186.7 0 160 0C133.3 0 106.7 0 80 0C53.3 0 26.7 0 13.3 0L0 0Z" fill="#556d48"></path></svg>