<svg id="visual" viewBox="0 0 960 540" width="960" height="540" xmlns="http://www.w3.org/2000/svg" xmlns:xlink="http://www.w3.org/1999/xlink" version="1.1"><rect x="0" y="0" width="960" height="540" fill="#F4F4F4"></rect><defs><linearGradient id="grad1_0" x1="43.8%" y1="100%" x2="100%" y2="0%"><stop offset="14.444444444444446%" stop-color="#99bc85" stop-opacity="1"></stop><stop offset="85.55555555555554%" stop-color="#99bc85" stop-opacity="1"></stop></linearGradient></defs><defs><linearGradient id="grad1_1" x1="43.8%" y1="100%" x2="100%" y2="0%"><stop offset="14.444444444444446%" stop-color="#99bc85" stop-opacity="1"></stop><stop offset="85.55555555555554%" stop-color="#c6d8bb" stop-opacity="1"></stop></linearGradient></defs><defs><linearGradient id="grad1_2" x1="43.8%" y1="100%" x2="100%" y2="0%"><stop offset="14.444444444444446%" stop-color="#f4f4f4" stop-opacity="1"></stop><stop offset="85.55555555555554%" stop-color="#c6d8bb" stop-opacity="1"></stop></linearGradient></defs><defs><linearGradient id="grad2_0" x1="0%" y1="100%" x2="56.3%" y2="0%"><stop offset="14.444444444444446%" stop-color="#99bc85" stop-opacity="1"></stop><stop offset="85.55555555555554%" stop-color="#99bc85" stop-opacity="1"></stop></linearGradient></defs><defs><linearGradient id="grad2_1" x1="0%" y1="100%" x2="56.3%" y2="0%"><stop offset="14.444444444444446%" stop-color="#c6d8bb" stop-opacity="1"></stop><stop offset="85.55555555555554%" stop-color="#99bc85" stop-opacity="1"></stop></linearGradient></defs><defs><linearGradient id="grad2_2" x1="0%" y1="100%" x2="56.3%" y2="0%"><stop offset="14.444444444444446%" stop-color="#c6d8bb" stop-opacity="1"></stop><stop offset="85.55555555555554%" stop-color="#f4f4f4" stop-opacity="1"></stop></linearGradient></defs><g transform="translate(960, 540)"><path d="M-405 0C-381.7 -30.4 -358.4 -60.8 -350.6 -94C-342.9 -127.1 -350.6 -162.9 -344.7 -199C-338.7 -235.1 -319.1 -271.6 -286.4 -286.4C-253.6 -301.1 -207.8 -294.2 -175 -303.1C-142.2 -312 -122.5 -336.8 -95.5 -356.4C-68.5 -376.1 -34.3 -390.5 0 -405L0 0Z" fill="#dde6d7"></path><path d="M-270 0C-254.5 -20.3 -238.9 -40.6 -233.8 -62.6C-228.6 -84.7 -233.7 -108.6 -229.8 -132.7C-225.8 -156.8 -212.7 -181.1 -190.9 -190.9C-169.1 -200.8 -138.5 -196.1 -116.7 -202.1C-94.8 -208 -81.7 -224.5 -63.7 -237.6C-45.7 -250.7 -22.8 -260.4 0 -270L0 0Z" fill="#b0caa0"></path><path d="M-135 0C-127.2 -10.1 -119.5 -20.3 -116.9 -31.3C-114.3 -42.4 -116.9 -54.3 -114.9 -66.3C-112.9 -78.4 -106.4 -90.5 -95.5 -95.5C-84.5 -100.4 -69.3 -98.1 -58.3 -101C-47.4 -104 -40.8 -112.3 -31.8 -118.8C-22.8 -125.4 -11.4 -130.2 0 -135L0 0Z" fill="#99bc85"></path></g><g transform="translate(0, 0)"><path d="M405 0C388.7 30.9 372.5 61.8 368 98.6C363.6 135.4 370.9 178.2 350.7 202.5C330.6 226.8 282.9 232.5 255.3 255.3C227.7 278 220.2 317.8 198 342.9C175.8 368.1 139 378.5 103.5 386.4C68.1 394.3 34 399.6 0 405L0 0Z" fill="#dde6d7"></path><path d="M270 0C259.2 20.6 248.3 41.2 245.3 65.7C242.4 90.3 247.3 118.8 233.8 135C220.4 151.2 188.6 155 170.2 170.2C151.8 185.4 146.8 211.9 132 228.6C117.2 245.4 92.6 252.3 69 257.6C45.4 262.8 22.7 266.4 0 270L0 0Z" fill="#b0caa0"></path><path d="M135 0C129.6 10.3 124.2 20.6 122.7 32.9C121.2 45.1 123.6 59.4 116.9 67.5C110.2 75.6 94.3 77.5 85.1 85.1C75.9 92.7 73.4 105.9 66 114.3C58.6 122.7 46.3 126.2 34.5 128.8C22.7 131.4 11.3 133.2 0 135L0 0Z" fill="#99bc85"></path></g></svg>