<svg id="visual" viewBox="0 0 900 600" width="900" height="600" xmlns="http://www.w3.org/2000/svg" xmlns:xlink="http://www.w3.org/1999/xlink" version="1.1"><path d="M0 401L21.5 408.8C43 416.7 86 432.3 128.8 438.5C171.7 444.7 214.3 441.3 257.2 425.8C300 410.3 343 382.7 385.8 380.7C428.7 378.7 471.3 402.3 514.2 409.8C557 417.3 600 408.7 642.8 411.5C685.7 414.3 728.3 428.7 771.2 423.7C814 418.7 857 394.3 878.5 382.2L900 370L900 601L878.5 601C857 601 814 601 771.2 601C728.3 601 685.7 601 642.8 601C600 601 557 601 514.2 601C471.3 601 428.7 601 385.8 601C343 601 300 601 257.2 601C214.3 601 171.7 601 128.8 601C86 601 43 601 21.5 601L0 601Z" fill="#99bc85"></path><path d="M0 429L21.5 425.8C43 422.7 86 416.3 128.8 412.5C171.7 408.7 214.3 407.3 257.2 408.8C300 410.3 343 414.7 385.8 427C428.7 439.3 471.3 459.7 514.2 462.7C557 465.7 600 451.3 642.8 440.3C685.7 429.3 728.3 421.7 771.2 424C814 426.3 857 438.7 878.5 444.8L900 451L900 601L878.5 601C857 601 814 601 771.2 601C728.3 601 685.7 601 642.8 601C600 601 557 601 514.2 601C471.3 601 428.7 601 385.8 601C343 601 300 601 257.2 601C214.3 601 171.7 601 128.8 601C86 601 43 601 21.5 601L0 601Z" fill="#87a875"></path><path d="M0 480L21.5 482.3C43 484.7 86 489.3 128.8 485.5C171.7 481.7 214.3 469.3 257.2 467.3C300 465.3 343 473.7 385.8 475.5C428.7 477.3 471.3 472.7 514.2 468.7C557 464.7 600 461.3 642.8 463.3C685.7 465.3 728.3 472.7 771.2 480.5C814 488.3 857 496.7 878.5 500.8L900 505L900 601L878.5 601C857 601 814 601 771.2 601C728.3 601 685.7 601 642.8 601C600 601 557 601 514.2 601C471.3 601 428.7 601 385.8 601C343 601 300 601 257.2 601C214.3 601 171.7 601 128.8 601C86 601 43 601 21.5 601L0 601Z" fill="#769466"></path><path d="M0 528L21.5 521.5C43 515 86 502 128.8 495.2C171.7 488.3 214.3 487.7 257.2 493.2C300 498.7 343 510.3 385.8 513C428.7 515.7 471.3 509.3 514.2 505C557 500.7 600 498.3 642.8 503.8C685.7 509.3 728.3 522.7 771.2 521.8C814 521 857 506 878.5 498.5L900 491L900 601L878.5 601C857 601 814 601 771.2 601C728.3 601 685.7 601 642.8 601C600 601 557 601 514.2 601C471.3 601 428.7 601 385.8 601C343 601 300 601 257.2 601C214.3 601 171.7 601 128.8 601C86 601 43 601 21.5 601L0 601Z" fill="#658057"></path><path d="M0 547L21.5 543.8C43 540.7 86 534.3 128.8 533.8C171.7 533.3 214.3 538.7 257.2 539.5C300 540.3 343 536.7 385.8 535.3C428.7 534 471.3 535 514.2 539.3C557 543.7 600 551.3 642.8 552.2C685.7 553 728.3 547 771.2 541.5C814 536 857 531 878.5 528.5L900 526L900 601L878.5 601C857 601 814 601 771.2 601C728.3 601 685.7 601 642.8 601C600 601 557 601 514.2 601C471.3 601 428.7 601 385.8 601C343 601 300 601 257.2 601C214.3 601 171.7 601 128.8 601C86 601 43 601 21.5 601L0 601Z" fill="#556d48"></path></svg>